<svg xmlns="http://www.w3.org/2000/svg" preserveAspectRatio="none" viewBox="0 0 2000 50"><path fill="rgb(46, 44, 63)" d="M0 22.6l15.6-1.1L31.3 19l15.6 1.8 15.6.3 15.6 1.9 15.7.5 15.6 1.5 15.6-2 15.6 1.9 15.7.4 15.6 1.4 15.6-1.9 15.6-.1 15.7-4 15.6.4 15.6 1.9 15.6.4 15.6.2 15.7.8 15.6-.3 15.6 1.2 15.6 3.1 15.7 1 15.6.7 15.6-2.2 15.6-.4 15.7-1 15.6 2 15.6.8 15.6-2 15.7 3 15.6.3 15.6 2 15.6-2.9 15.7-1.6 15.6.2 15.6 3 15.6-1.1 15.7.3 15.6-.3 15.6 1.7 15.6-.4 15.7-1.2 15.6-2.7 15.6 1.8 15.6-2.2 15.7.5 15.6-3.1 15.6 3.8 15.6.1 15.7 2.1 15.6-2.8 15.6-.4 15.6-2 15.7 1.2 15.6-2 15.6-2 15.6-1 15.7.9 15.6.6 15.6.7 15.6 1.5 15.7 2.4L1000 29l15.6-.4h15.6l15.7 3.7 15.6 1.8 15.6.5 15.7-3.4 15.6-1.7 15.6 3 15.6.4 15.7-.2 15.6-4.1 15.6 1 15.6 4.1h15.7l15.6-.9 15.6-1.6h15.6l15.7 3.1 15.6-.4 15.6-.6 15.6-.4 15.7 2 15.6-1.2 15.6 3.6 15.6 1 15.7-3.7 15.6-2.4h15.6l15.6 2.5 15.7.1 15.6.4 15.6-1.5 15.6-2.4 15.7.4 15.6.4 15.6 2.3h15.6l15.7-2.2 15.6 1.2 15.6-2.9 15.6 1.3 15.7-2.5 15.6.6 15.6-1.9 15.6 2.1 15.7-1 15.6-.4 15.6.8 15.6 2.6 15.7 1 15.6-1.6 15.6-1.4 15.6-1.5 15.7 2.8 15.6 1.2L1875 30l15.6 1.3 15.7 1.9 15.6 1.3 15.6 1.2 15.6-.3 15.7-2.9 15.6 1.3 15.6-.1V50H0z"></path></svg>
