<svg xmlns="http://www.w3.org/2000/svg" preserveAspectRatio="none" viewBox="0 0 2000 50"><path fill="rgb(2, 26, 50)" d="M0 35.8l15.6 1 15.7 3.7 15.6 1.1 15.6-1.4 15.6.8 15.7-4.3 15.6.2L125 39l15.6-2.6 15.7 1.5 15.6-2.1 15.6-1.8 15.6.1 15.7.4h15.6l15.6 2.3 15.6 1.8 15.6-1.5 15.7-3.3 15.6-2.1 15.6-2.9 15.6 2.1 15.7 1.7 15.6-1 15.6 3.2 15.6-.1 15.7-2.2 15.6.5 15.6-.4 15.6 1.5 15.7-.4 15.6 2.2 15.6-1.7 15.6-.6L547 33l15.6-1 15.6-.4 15.6 2.9 15.7-.6 15.6-2.5 15.6 2.4 15.6-1.4 15.7-.8h15.6l15.6-1.2 15.6-.3 15.7 1.3 15.6 3.1 15.6 3 15.6-1L797 36l15.6-3.6 15.6-1.5 15.6-2.2 15.7-2.9L875 28l15.6-.6 15.6-1.4L922 25l15.6 4.1 15.6 1.6 15.6-1 15.7-2 15.6-3 15.6-.2 15.6-3.2 15.7 1.4 15.6-1.2 15.6-2 15.7 2.3 15.6 3.2 15.6-1.7 15.6 2.8 15.7-.3 15.6.8 15.6.5 15.6-2.4 15.7 1 15.6-.7 15.6 2.3 15.6-.7 15.7.5 15.6 2.1 15.6 1.8 15.6-.6 15.7 2.5 15.6-2.7 15.6-.7 15.6 3 15.7 1 15.6-.4 15.6.6 15.6 1.3 15.7-3.1 15.6-.3 15.6-1 15.6.1 15.7-.2 15.6 1 15.6.7 15.6-.5 15.7 1.3 15.6 2 15.6-.8 15.6 1.1 15.7.7 15.6-.6 15.6-3.1 15.6 1.7 15.7 2 15.6-1.8 15.6.2 15.6 2.5h15.7l15.6 1.8 15.6-2.7 15.6 2.1 15.7-2.5 15.6-1.5 15.6-.3 15.6-3.4 15.7-.8 15.6 1.8 15.6-1 15.6 1 15.7-3.3 15.6 1 15.6-1.6V50H0z"></path></svg>
