<svg viewBox="0 0 2000 50" xmlns="http://www.w3.org/2000/svg"><path d="M2000 13h-31l-16 1-15 2-16 1-16-4-15 1h-16l-16 3-15 1-31 3-16-1-16-2-15 4h-47l-16 3h-31l-16 2-15-3-16 2-16-3h-15l-16-4-15 2-16 2-16-3-15-2-16 2h-16l-15 3-16-4-15 1-16-2-16 4-15-1-16-1-16 1-15 4-16 2-15-2-16 3h-16l-15 1-16-2-16 3-15-2-16 1h-31l-16-2-15-3h-16l-16-1-15-4-16 1-16 1-15 3h-16l-15-2-16-1h-16l-15 2-16-2-16 2-15-1-16 2-15-1-16-4-16-1-15 2-16 1-31-2-16 2h-15l-16 1h-16l-15 1-16 2-16-3h-15l-16 4-15-3-16 1h-16l-15-2h-16l-16 3-15 1-16-2-15-3-16 1-16 3h-15l-16-2h-16l-15 3-16-3-15-1-16 2-16 3-15-1h-31l-16-3-16 2-15-1h-32l-15 1-16-1-15-1-16 2-16-2-15 4-16 2-16 3-15-1-16-2-31-5H31l-15-2-16 2V0h2000v13z" fill="rgb(46, 44, 63)"/></svg>
